<?xml version="1.0" encoding="UTF-8" standalone="no"?>
<svg width="72px" height="72px" viewBox="0 0 72 72" version="1.1" xmlns="http://www.w3.org/2000/svg" xmlns:xlink="http://www.w3.org/1999/xlink" xmlns:sketch="http://www.bohemiancoding.com/sketch/ns">
    <!-- Generator: Sketch 3.4 (15575) - http://www.bohemiancoding.com/sketch -->
    <title>joy-brand-circle-blk@2x</title>
    <desc>Created with Sketch.</desc>
    <defs></defs>
    <g id="Page-1" stroke="none" stroke-width="1" fill="none" fill-rule="evenodd" sketch:type="MSPage">
        <g id="Home" sketch:type="MSArtboardGroup" transform="translate(-129.000000, -43.000000)">
            <g id="joy-brand-circle-blk" sketch:type="MSLayerGroup" transform="translate(129.000000, 43.000000)">
                <path d="M36,72 C55.882251,72 72,55.882251 72,36 C72,16.117749 55.882251,0 36,0 C16.117749,0 0,16.117749 0,36 C0,55.882251 16.117749,72 36,72 Z" id="Base" fill-opacity="0.87" fill="#000000" sketch:type="MSShapeGroup"></path>
                <path d="M32.9491525,17.8983051 L24.3137481,35.6232449 C22.8208008,38.6604449 19.8003587,42.3050847 15.5357116,42.3050847 C12.4797349,42.3050847 11.1289261,41.1974001 10.1694915,38.7671439 L12.657408,37.2311743 C13.4747041,38.8743392 14.1498617,39.5180072 15.7133847,39.5180072 C18.0942037,39.5180072 20.3689125,36.8733604 21.6481586,34.1934781 L28.2225555,20.5781874 L29.5018016,17.8983051 L32.9491525,17.8983051" id="J" fill="#FFFFFF" sketch:type="MSShapeGroup"></path>
                <path d="M31.440335,41.8983051 C28.605725,41.8983051 27.6610169,39.0077971 27.6610169,36.7956888 C27.6610169,31.9433222 31.8602052,25.6271186 36.8641448,25.6271186 C39.7682473,25.6271186 40.6779661,28.3035517 40.6779661,30.4799808 C40.6779661,35.1901263 37.1440583,41.8983051 31.440335,41.8983051 L31.440335,41.8983051 Z M30.5084746,37.0815515 C30.5084746,37.8501248 30.5417459,39.4576271 31.790592,39.4576271 C34.9284057,39.4576271 37.8305085,33.9024525 37.8305085,30.4438723 C37.8305085,29.3958177 37.3918894,28.0677966 36.3459515,28.0677966 C34.0511675,28.0677966 30.5084746,32.6797221 30.5084746,37.0815515 L30.5084746,37.0815515 Z" id="O" fill="#FFFFFF" sketch:type="MSShapeGroup"></path>
                <path d="M61.4237288,35.2610859 C57.4195212,41.4830796 50.3396612,43.9580319 48.9453389,44.3822252 L44.4401088,54.3164018 C43.2245458,56.9676103 40.6504123,58.1694915 38.5405564,58.1694915 C34.1430785,58.1694915 31.2109299,53.6801117 34.10683,49.0837017 C36.7529637,44.8771175 42.9380344,43.886842 46.3712054,42.7915001 C46.3712054,42.7915001 47.4795129,40.8114401 49.0525944,37.7708967 C47.5510166,39.7509567 45.2986498,41.9426224 42.5810124,41.9426224 C39.9706306,41.9426224 39.9706306,39.1500161 40.9364272,37.2057965 L46.4422126,26.0338983 L49.3743611,26.0338983 L44.0468384,36.7457627 C43.4753053,37.9481349 43.3318013,39.1500161 44.2971014,39.1500161 C46.9074832,39.1500161 50.7686834,34.3420003 51.6272244,32.6098774 C51.6272244,32.6098774 52.5925245,30.5591185 54.9163949,26.0338983 L57.8127916,26.0338983 L50.0893982,41.6244774 C50.8764355,41.3416818 56.8112432,39.0439677 59.9579028,34.3773498 L61.4237288,35.2610859 L61.4237288,35.2610859 Z M45.9661017,45.1525424 C40.7005615,46.3411804 37.8683352,48.4308022 36.5611539,50.988175 C35.7260103,52.6090451 36.4159115,54.3744928 37.977267,55.0588602 C39.7564861,55.8147659 41.754073,54.9508022 42.8797013,52.3569097 C42.8797013,52.3569097 43.351739,51.3843877 45.9661017,45.1525424 L45.9661017,45.1525424 Z" id="Y" fill="#FFFFFF" sketch:type="MSShapeGroup"></path>
            </g>
        </g>
    </g>
</svg>